<mxfile host="app.diagrams.net" modified="2021-03-31T11:32:42.278Z" agent="5.0 (Windows NT 10.0; Win64; x64) AppleWebKit/537.36 (KHTML, like Gecko) Chrome/89.0.4389.90 Safari/537.36" etag="iHrB60fz7xsZBWTx2aaO" version="14.5.3" type="github">
  <diagram id="C5RBs43oDa-KdzZeNtuy" name="Page-1">
    <mxGraphModel dx="1789" dy="891" grid="0" gridSize="10" guides="1" tooltips="1" connect="1" arrows="1" fold="1" page="1" pageScale="1" pageWidth="827" pageHeight="1169" background="#E6E6E6" math="0" shadow="0">
      <root>
        <mxCell id="WIyWlLk6GJQsqaUBKTNV-0" />
        <mxCell id="WIyWlLk6GJQsqaUBKTNV-1" parent="WIyWlLk6GJQsqaUBKTNV-0" />
        <mxCell id="yCoFn1HLlYzGFG8CJQgo-0" value="" style="shape=actor;whiteSpace=wrap;html=1;fillColor=#000000;" parent="WIyWlLk6GJQsqaUBKTNV-1" vertex="1">
          <mxGeometry x="37" y="334" width="72" height="91" as="geometry" />
        </mxCell>
        <mxCell id="z847mLsnk4uZPP90Tr30-22" style="edgeStyle=orthogonalEdgeStyle;rounded=1;orthogonalLoop=1;jettySize=auto;html=1;endArrow=block;endFill=1;strokeColor=#4D4D4D;strokeWidth=27;" edge="1" parent="WIyWlLk6GJQsqaUBKTNV-1" source="yCoFn1HLlYzGFG8CJQgo-1" target="yCoFn1HLlYzGFG8CJQgo-10">
          <mxGeometry relative="1" as="geometry">
            <mxPoint x="694" y="356" as="targetPoint" />
            <Array as="points">
              <mxPoint x="732" y="374" />
              <mxPoint x="732" y="672" />
            </Array>
          </mxGeometry>
        </mxCell>
        <mxCell id="z847mLsnk4uZPP90Tr30-28" style="edgeStyle=orthogonalEdgeStyle;rounded=1;orthogonalLoop=1;jettySize=auto;html=1;endArrow=block;endFill=1;strokeColor=#4D4D4D;strokeWidth=27;" edge="1" parent="WIyWlLk6GJQsqaUBKTNV-1" source="yCoFn1HLlYzGFG8CJQgo-1">
          <mxGeometry relative="1" as="geometry">
            <mxPoint x="111" y="374" as="targetPoint" />
          </mxGeometry>
        </mxCell>
        <mxCell id="yCoFn1HLlYzGFG8CJQgo-10" value="&lt;b&gt;&lt;br&gt;&lt;/b&gt;" style="whiteSpace=wrap;html=1;strokeColor=#999999;fillColor=#CCCCCC;" parent="WIyWlLk6GJQsqaUBKTNV-1" vertex="1">
          <mxGeometry x="207" y="607" width="290" height="270" as="geometry" />
        </mxCell>
        <mxCell id="mNj7DoYh3Yw0xGTKnXcC-0" value="&lt;p style=&quot;line-height: 200%&quot;&gt;&lt;font style=&quot;font-size: 16px&quot;&gt;返回模拟器测试结果&lt;/font&gt;&lt;/p&gt;" style="text;html=1;strokeColor=none;fillColor=none;align=center;verticalAlign=middle;whiteSpace=wrap;rounded=0;fontStyle=1" parent="WIyWlLk6GJQsqaUBKTNV-1" vertex="1">
          <mxGeometry x="201" y="334" width="120" height="20" as="geometry" />
        </mxCell>
        <mxCell id="mNj7DoYh3Yw0xGTKnXcC-2" value="&lt;p style=&quot;line-height: 200%&quot;&gt;&lt;font style=&quot;font-size: 16px&quot;&gt;返回实机测试结果&lt;/font&gt;&lt;/p&gt;" style="text;html=1;strokeColor=none;fillColor=none;align=center;verticalAlign=middle;whiteSpace=wrap;rounded=0;fontStyle=1" parent="WIyWlLk6GJQsqaUBKTNV-1" vertex="1">
          <mxGeometry x="92" y="575" width="100" height="20" as="geometry" />
        </mxCell>
        <mxCell id="mNj7DoYh3Yw0xGTKnXcC-13" value="&lt;p style=&quot;line-height: 200%&quot;&gt;实机测试通过&lt;/p&gt;" style="text;html=1;strokeColor=none;fillColor=none;align=center;verticalAlign=middle;whiteSpace=wrap;rounded=0;fontStyle=1" parent="WIyWlLk6GJQsqaUBKTNV-1" vertex="1">
          <mxGeometry x="502" y="768" width="90" height="20" as="geometry" />
        </mxCell>
        <mxCell id="zhnEyoMv6DwNwn8XBxOK-1" value="&lt;b style=&quot;line-height: 200%&quot;&gt;&lt;font style=&quot;font-size: 25px&quot;&gt;实机测试&lt;/font&gt;&lt;/b&gt;" style="text;html=1;strokeColor=none;fillColor=none;align=center;verticalAlign=middle;whiteSpace=wrap;rounded=0;sketch=0;" parent="WIyWlLk6GJQsqaUBKTNV-1" vertex="1">
          <mxGeometry x="299" y="607" width="106" height="50" as="geometry" />
        </mxCell>
        <mxCell id="z847mLsnk4uZPP90Tr30-7" value="" style="rounded=0;whiteSpace=wrap;html=1;strokeColor=#999999;fillColor=#CCCCCC;" vertex="1" parent="WIyWlLk6GJQsqaUBKTNV-1">
          <mxGeometry x="674" y="763" width="120" height="85" as="geometry" />
        </mxCell>
        <mxCell id="z847mLsnk4uZPP90Tr30-18" value="" style="edgeStyle=segmentEdgeStyle;endArrow=block;html=1;strokeWidth=27;strokeColor=#4D4D4D;exitX=0.005;exitY=0.465;exitDx=0;exitDy=0;exitPerimeter=0;entryX=0.5;entryY=1;entryDx=0;entryDy=0;endFill=1;" edge="1" parent="WIyWlLk6GJQsqaUBKTNV-1" source="yCoFn1HLlYzGFG8CJQgo-10" target="yCoFn1HLlYzGFG8CJQgo-0">
          <mxGeometry width="50" height="50" relative="1" as="geometry">
            <mxPoint x="164" y="403" as="sourcePoint" />
            <mxPoint x="70" y="287" as="targetPoint" />
          </mxGeometry>
        </mxCell>
        <mxCell id="z847mLsnk4uZPP90Tr30-19" value="" style="edgeStyle=segmentEdgeStyle;endArrow=block;html=1;strokeWidth=27;strokeColor=#4D4D4D;endFill=1;" edge="1" parent="WIyWlLk6GJQsqaUBKTNV-1" target="z847mLsnk4uZPP90Tr30-7">
          <mxGeometry width="50" height="50" relative="1" as="geometry">
            <mxPoint x="497" y="805" as="sourcePoint" />
            <mxPoint x="627" y="805" as="targetPoint" />
            <Array as="points" />
          </mxGeometry>
        </mxCell>
        <mxCell id="z847mLsnk4uZPP90Tr30-30" value="&lt;b style=&quot;line-height: 200%&quot;&gt;&lt;font style=&quot;font-size: 16px&quot;&gt;集成测试通过后自动部署到机器人上&lt;/font&gt;&lt;/b&gt;" style="text;html=1;strokeColor=none;fillColor=none;align=center;verticalAlign=middle;whiteSpace=wrap;rounded=0;" vertex="1" parent="WIyWlLk6GJQsqaUBKTNV-1">
          <mxGeometry x="614" y="476" width="97" height="20" as="geometry" />
        </mxCell>
        <mxCell id="yCoFn1HLlYzGFG8CJQgo-1" value="" style="whiteSpace=wrap;html=1;strokeColor=#6c8ebf;fillColor=#CCCCCC;" parent="WIyWlLk6GJQsqaUBKTNV-1" vertex="1">
          <mxGeometry x="344" y="258" width="225" height="233" as="geometry" />
        </mxCell>
        <mxCell id="z847mLsnk4uZPP90Tr30-33" value="&lt;b&gt;&lt;font style=&quot;font-size: 23px ; background-color: rgb(204 , 204 , 204) ; line-height: 100%&quot;&gt;稳定版本&lt;/font&gt;&lt;/b&gt;" style="text;html=1;strokeColor=none;fillColor=none;align=center;verticalAlign=middle;whiteSpace=wrap;rounded=0;labelBackgroundColor=#E6E6E6;" vertex="1" parent="WIyWlLk6GJQsqaUBKTNV-1">
          <mxGeometry x="684.5" y="782" width="99" height="47" as="geometry" />
        </mxCell>
      </root>
    </mxGraphModel>
  </diagram>
</mxfile>
